<svg version="1.1" viewBox="0.0 0.0 960.0 720.0" fill="none" stroke="none" stroke-linecap="square" stroke-miterlimit="10" xmlns:xlink="http://www.w3.org/1999/xlink" xmlns="http://www.w3.org/2000/svg"><clipPath id="p.0"><path d="m0 0l960.0 0l0 720.0l-960.0 0l0 -720.0z" clip-rule="nonzero"/></clipPath><g clip-path="url(#p.0)"><path fill="#000000" fill-opacity="0.0" d="m0 0l960.0 0l0 720.0l-960.0 0z" fill-rule="evenodd"/><path fill="#000000" fill-opacity="0.0" d="m128.91339 360.0l0 0c0 -193.89978 157.18683 -351.0866 351.0866 -351.0866l0 0c93.11395 0 182.41418 36.98938 248.25574 102.830894c65.84149 65.84151 102.83087 155.14177 102.83087 248.25572l0 0c0 193.89978 -157.18683 351.0866 -351.0866 351.0866l0 0c-193.89978 0 -351.0866 -157.18683 -351.0866 -351.0866z" fill-rule="evenodd"/><path stroke="#000000" stroke-width="16.0" stroke-linejoin="round" stroke-linecap="butt" d="m128.91339 360.0l0 0c0 -193.89978 157.18683 -351.0866 351.0866 -351.0866l0 0c93.11395 0 182.41418 36.98938 248.25574 102.830894c65.84149 65.84151 102.83087 155.14177 102.83087 248.25572l0 0c0 193.89978 -157.18683 351.0866 -351.0866 351.0866l0 0c-193.89978 0 -351.0866 -157.18683 -351.0866 -351.0866z" fill-rule="evenodd"/><path fill="#000000" d="m390.68054 455.99997l73.296875 -190.875l27.21875 0l78.125 190.875l-28.78125 0l-22.265625 -57.8125l-79.8125 0l-20.953125 57.8125l-26.828125 0zm55.078125 -78.375l64.703125 0l-19.921875 -52.875q-9.109375 -24.078125 -13.53125 -39.578125q-3.65625 18.359375 -10.296875 36.453125l-20.953125 56.0z" fill-rule="nonzero"/></g></svg>