<svg version="1.1" viewBox="0.0 0.0 960.0 720.0" fill="none" stroke="none" stroke-linecap="square" stroke-miterlimit="10" xmlns:xlink="http://www.w3.org/1999/xlink" xmlns="http://www.w3.org/2000/svg"><clipPath id="p.0"><path d="m0 0l960.0 0l0 720.0l-960.0 0l0 -720.0z" clip-rule="nonzero"/></clipPath><g clip-path="url(#p.0)"><path fill="#000000" fill-opacity="0.0" d="m0 0l960.0 0l0 720.0l-960.0 0z" fill-rule="evenodd"/><path fill="#000000" fill-opacity="0.0" d="m128.91339 360.0l0 0c0 -193.89978 157.18683 -351.0866 351.0866 -351.0866l0 0c93.11395 0 182.41418 36.98938 248.25574 102.830894c65.84149 65.84151 102.83087 155.14177 102.83087 248.25572l0 0c0 193.89978 -157.18683 351.0866 -351.0866 351.0866l0 0c-193.89978 0 -351.0866 -157.18683 -351.0866 -351.0866z" fill-rule="evenodd"/><path stroke="#000000" stroke-width="16.0" stroke-linejoin="round" stroke-linecap="butt" d="m128.91339 360.0l0 0c0 -193.89978 157.18683 -351.0866 351.0866 -351.0866l0 0c93.11395 0 182.41418 36.98938 248.25574 102.830894c65.84149 65.84151 102.83087 155.14177 102.83087 248.25572l0 0c0 193.89978 -157.18683 351.0866 -351.0866 351.0866l0 0c-193.89978 0 -351.0866 -157.18683 -351.0866 -351.0866z" fill-rule="evenodd"/><path fill="#000000" d="m332.74088 455.99997l0 -190.875l71.609375 0q21.875 0 35.09375 5.796875q13.21875 5.78125 20.703125 17.828125q7.484375 12.046875 7.484375 25.203125q0 12.234375 -6.640625 23.046875q-6.640625 10.796875 -20.046875 17.4375q17.3125 5.078125 26.625 17.328125q9.3125 12.234375 9.3125 28.890625q0 13.421875 -5.671875 24.953125q-5.65625 11.515625 -14.0 17.765625q-8.328125 6.25 -20.890625 9.4375q-12.5625 3.1875 -30.796875 3.1875l-72.78125 0zm25.265625 -110.671875l41.265625 0q16.796875 0 24.09375 -2.21875q9.625 -2.859375 14.5 -9.5q4.890625 -6.640625 4.890625 -16.671875q0 -9.5 -4.5625 -16.71875q-4.546875 -7.234375 -13.015625 -9.90625q-8.453125 -2.671875 -29.03125 -2.671875l-38.140625 0l0 57.6875zm0 88.140625l47.515625 0q12.234375 0 17.1875 -0.90625q8.71875 -1.5625 14.578125 -5.203125q5.859375 -3.65625 9.640625 -10.609375q3.78125 -6.96875 3.78125 -16.09375q0 -10.671875 -5.46875 -18.546875q-5.46875 -7.875 -15.171875 -11.0625q-9.703125 -3.1875 -27.9375 -3.1875l-44.125 0l0 65.609375zm199.85764 -8.328125l0 -52.34375l-51.953125 0l0 -21.875l51.953125 0l0 -51.953125l22.125 0l0 51.953125l51.953125 0l0 21.875l-51.953125 0l0 52.34375l-22.125 0z" fill-rule="nonzero"/></g></svg>