<svg version="1.1" viewBox="0.0 0.0 960.0 720.0" fill="none" stroke="none" stroke-linecap="square" stroke-miterlimit="10" xmlns:xlink="http://www.w3.org/1999/xlink" xmlns="http://www.w3.org/2000/svg"><clipPath id="p.0"><path d="m0 0l960.0 0l0 720.0l-960.0 0l0 -720.0z" clip-rule="nonzero"/></clipPath><g clip-path="url(#p.0)"><path fill="#000000" fill-opacity="0.0" d="m0 0l960.0 0l0 720.0l-960.0 0z" fill-rule="evenodd"/><path fill="#000000" fill-opacity="0.0" d="m128.91339 360.0l0 0c0 -193.89978 157.18683 -351.0866 351.0866 -351.0866l0 0c93.11395 0 182.41418 36.98938 248.25574 102.830894c65.84149 65.84151 102.83087 155.14177 102.83087 248.25572l0 0c0 193.89978 -157.18683 351.0866 -351.0866 351.0866l0 0c-193.89978 0 -351.0866 -157.18683 -351.0866 -351.0866z" fill-rule="evenodd"/><path stroke="#000000" stroke-width="16.0" stroke-linejoin="round" stroke-linecap="butt" d="m128.91339 360.0l0 0c0 -193.89978 157.18683 -351.0866 351.0866 -351.0866l0 0c93.11395 0 182.41418 36.98938 248.25574 102.830894c65.84149 65.84151 102.83087 155.14177 102.83087 248.25572l0 0c0 193.89978 -157.18683 351.0866 -351.0866 351.0866l0 0c-193.89978 0 -351.0866 -157.18683 -351.0866 -351.0866z" fill-rule="evenodd"/><path fill="#000000" d="m462.61877 389.0781l25.265625 6.375q-7.953125 31.125 -28.59375 47.46875q-20.625 16.328125 -50.453125 16.328125q-30.859375 0 -50.1875 -12.5625q-19.328125 -12.5625 -29.421875 -36.390625q-10.09375 -23.828125 -10.09375 -51.171875q0 -29.8125 11.390625 -52.015625q11.390625 -22.203125 32.421875 -33.71875q21.03125 -11.53125 46.28125 -11.53125q28.65625 0 48.1875 14.59375q19.53125 14.578125 27.203125 41.015625l-24.859375 5.859375q-6.640625 -20.84375 -19.28125 -30.34375q-12.625 -9.5 -31.765625 -9.5q-22.0 0 -36.78125 10.546875q-14.78125 10.546875 -20.765625 28.328125q-5.984375 17.765625 -5.984375 36.640625q0 24.34375 7.09375 42.515625q7.09375 18.15625 22.0625 27.140625q14.96875 8.984375 32.421875 8.984375q21.21875 0 35.9375 -12.234375q14.71875 -12.25 19.921875 -36.328125zm102.60187 36.0625l0 -52.34375l-51.953125 0l0 -21.875l51.953125 0l0 -51.953125l22.125 0l0 51.953125l51.953125 0l0 21.875l-51.953125 0l0 52.34375l-22.125 0z" fill-rule="nonzero"/></g></svg>