<svg version="1.1" viewBox="0.0 0.0 960.0 720.0" fill="none" stroke="none" stroke-linecap="square" stroke-miterlimit="10" xmlns:xlink="http://www.w3.org/1999/xlink" xmlns="http://www.w3.org/2000/svg"><clipPath id="p.0"><path d="m0 0l960.0 0l0 720.0l-960.0 0l0 -720.0z" clip-rule="nonzero"/></clipPath><g clip-path="url(#p.0)"><path fill="#000000" fill-opacity="0.0" d="m0 0l960.0 0l0 720.0l-960.0 0z" fill-rule="evenodd"/><path fill="#dede00" d="m128.91339 360.0l0 0c0 -193.89978 157.18683 -351.0866 351.0866 -351.0866l0 0c93.11395 0 182.41418 36.98938 248.25574 102.830894c65.84149 65.84151 102.83087 155.14177 102.83087 248.25572l0 0c0 193.89978 -157.18683 351.0866 -351.0866 351.0866l0 0c-193.89978 0 -351.0866 -157.18683 -351.0866 -351.0866z" fill-rule="evenodd"/><path stroke="#dede00" stroke-width="16.0" stroke-linejoin="round" stroke-linecap="butt" d="m128.91339 360.0l0 0c0 -193.89978 157.18683 -351.0866 351.0866 -351.0866l0 0c93.11395 0 182.41418 36.98938 248.25574 102.830894c65.84149 65.84151 102.83087 155.14177 102.83087 248.25572l0 0c0 193.89978 -157.18683 351.0866 -351.0866 351.0866l0 0c-193.89978 0 -351.0866 -157.18683 -351.0866 -351.0866z" fill-rule="evenodd"/></g></svg>